<?xml version="1.0" standalone="no"?><!DOCTYPE svg PUBLIC "-//W3C//DTD SVG 1.1//EN" "http://www.w3.org/Graphics/SVG/1.1/DTD/svg11.dtd"><svg t="1612852717201" class="icon" viewBox="0 0 1024 1024" version="1.1" xmlns="http://www.w3.org/2000/svg" p-id="15559" xmlns:xlink="http://www.w3.org/1999/xlink" width="200" height="200"><defs><style type="text/css"></style></defs><path d="M938.496 606.208c2.048-16.896 3.584-34.816 3.584-53.248 0-235.52-189.952-426.496-423.936-426.496S94.208 317.44 94.208 552.96c0 17.92 1.536 35.328 3.584 53.248h840.704z" fill="#3B86C7" opacity=".25" p-id="15560"></path><path d="M866.304 606.208c2.56-16.896 4.096-34.816 4.096-53.248 0-196.096-158.208-354.816-352.768-354.816s-353.28 158.72-353.28 354.816c0 17.92 1.536 35.328 4.096 53.248h697.856z" fill="#3B86C7" opacity=".25" p-id="15561"></path><path d="M547.328 614.4c0 4.608-3.584 8.192-8.192 8.192h-460.8c-4.608 0-8.192-3.584-8.192-8.192s3.584-8.192 8.192-8.192h460.288c4.608 0 8.704 4.096 8.704 8.192z m476.672 0c0 4.608-3.584 8.192-8.192 8.192H983.04c-4.608 0-8.192-3.584-8.192-8.192s3.584-8.192 8.192-8.192h32.768c4.608 0 8.192 4.096 8.192 8.192z m-968.704 0c0 4.608-3.584 8.192-8.192 8.192H14.848c-4.608 0-8.192-3.584-8.192-8.192 0-4.608 3.584-8.192 8.192-8.192h32.256c4.096 0 8.192 3.072 8.192 8.192z m902.656 0c0 4.608-3.584 8.192-8.192 8.192h-295.936c-4.608 0-8.192-3.584-8.192-8.192s3.584-8.192 8.192-8.192h295.936c5.12 0 8.192 4.096 8.192 8.192z m-328.192 0c0 4.608-3.584 8.192-8.192 8.192H588.8c-4.608 0-8.192-3.584-8.192-8.192s3.584-8.192 8.192-8.192h32.768c4.096 0 8.192 4.096 8.192 8.192z m164.352 61.952c0 2.048-2.048 4.096-4.096 4.096H485.376c-2.048 0-4.096-2.048-4.096-4.096s2.048-4.096 4.096-4.096h303.616c3.072 0 5.12 2.048 5.12 4.096z m-321.024 0c0 2.048-2.048 4.096-4.096 4.096h-32.768c-2.048 0-4.096-2.048-4.096-4.096s2.048-4.096 4.096-4.096h32.768c2.56 0 4.096 2.048 4.096 4.096z m345.088 0c0 2.048-2.048 4.096-4.096 4.096h-8.192c-2.048 0-4.096-2.048-4.096-4.096s2.048-4.096 4.096-4.096h8.192c2.56 0 4.096 2.048 4.096 4.096z m57.856 0c0 2.048-2.048 4.096-4.096 4.096h-32.768c-2.048 0-4.096-2.048-4.096-4.096s2.048-4.096 4.096-4.096h32.768c2.048 0 4.096 2.048 4.096 4.096z" fill="#3B86C7" p-id="15562"></path><path d="M636.928 504.832c0 18.944-10.24 14.336-28.672 14.336l-3.072-49.664-250.368-5.632-4.096-242.688c0-18.944 14.848-16.384 32.768-16.384h262.656c18.432 0 32.256-4.096 32.256 14.848v38.4l-40.96-1.536-0.512 248.32z" fill="#3B86C7" opacity=".28" p-id="15563"></path><path d="M144.896 471.04c0 12.8 10.24 23.04 23.04 23.04s23.04-10.24 23.04-23.04-10.24-23.04-23.04-23.04-23.04 9.728-23.04 23.04z" fill="#3B86C7" p-id="15564"></path><path d="M782.848 190.464c0 11.776 9.728 20.992 20.992 20.992 11.776 0 20.992-9.728 20.992-20.992 0-11.776-9.728-20.992-20.992-20.992-11.264-0.512-20.992 9.216-20.992 20.992z" fill="#FFFFFF" p-id="15565"></path><path d="M888.32 230.4c0 0.512-0.512 2.048-2.048 2.048h-13.824c-0.512 0-1.536-0.512-1.536-2.048 0-0.512 0.512-1.536 1.536-1.536h13.824c1.536-0.512 2.048 0.512 2.048 1.536z m-2.56 5.12c0.512-0.512 2.048 0 2.56 0.512s0 2.048-0.512 2.56l-10.24 6.144c-0.512 0.512-2.048 0-2.56-0.512s0-2.048 0.512-2.56l10.24-6.144z m3.072 5.12c0.512-0.512 2.048-1.536 2.56-0.512 0.512 0.512 1.536 2.048 0.512 2.56l-6.144 10.24c-0.512 0.512-2.048 1.536-2.56 0.512-0.512-0.512-1.536-2.048-0.512-2.56l6.144-10.24z m9.216 17.408c0 0.512-0.512 1.536-2.048 1.536-0.512 0-1.536-0.512-1.536-1.536v-13.824c0-0.512 0.512-1.536 2.048-1.536 0.512 0 1.536 0.512 1.536 1.536v13.824z m2.56-15.872c-0.512-0.512 0-2.048 0.512-2.56 0.512-0.512 2.048 0 2.56 0.512l6.144 10.24c0.512 0.512 0 2.048-0.512 2.56-0.512 0.512-2.048 0-2.56-0.512l-6.144-10.24z m5.12-3.584c-0.512-0.512-1.536-2.048-0.512-2.56 1.024-0.512 2.048-1.536 2.56-0.512l10.24 6.144c0.512 0.512 1.536 2.048 0.512 2.56-0.512 0.512-2.048 1.536-2.56 0.512l-10.24-6.144z m16.384-8.192c0 0.512-0.512 2.048-2.048 2.048H906.24c-0.512 0-1.536-0.512-1.536-2.048 0-0.512 0.512-1.536 1.536-1.536h13.824c1.024-0.512 2.048 0.512 2.048 1.536z m-15.36-4.096c-0.512 0.512-2.048 0-2.56-0.512-0.512-0.512 0-2.048 0.512-2.56l10.24-6.144c0.512-0.512 2.048 0 2.56 0.512 0.512 0.512 0 2.048-0.512 2.56l-10.24 6.144z m-3.072-4.608c-0.512 0.512-2.048 1.536-2.56 0.512-0.512-0.512-1.536-2.048-0.512-2.56l6.144-10.24c0.512-0.512 2.048-1.536 2.56-0.512 0.512 0.512 1.536 2.048 0.512 2.56l-6.144 10.24z m-5.632-1.536c0 0.512-0.512 1.536-2.048 1.536-0.512 0-1.536-0.512-1.536-1.536v-13.824c0-0.512 0.512-1.536 2.048-1.536 0.512 0 1.536 0.512 1.536 1.536V220.16z m-6.144-0.512c0.512 0.512 0 2.048-0.512 2.56s-2.048 0-2.56-0.512l-6.144-10.24c-0.512-0.512 0-2.048 0.512-2.56 0.512-0.512 2.048 0 2.56 0.512l6.144 10.24z m-5.12 4.096c0.512 0.512 1.536 2.048 0.512 2.56-0.512 0.512-2.048 1.536-2.56 0.512l-10.24-6.144c-0.512-0.512-1.536-2.048-0.512-2.56 0.512-0.512 2.048-1.536 2.56-0.512l10.24 6.144zM799.232 262.656h-6.144v-8.704c0-1.536-2.048-2.56-3.584-2.56-1.536 0-3.584 1.536-3.584 2.56v8.704h-6.656c-1.536 0-2.56 2.048-2.56 3.584s1.536 3.584 2.56 3.584h6.656v4.096c0 1.536 2.048 2.56 3.584 2.56s3.584-1.536 3.584-2.56v-4.096h6.144c1.536 0 2.56-2.048 2.56-3.584-0.512-1.536-1.024-3.584-2.56-3.584zM217.088 542.72h-4.096v-8.192c0-1.536-4.096-2.56-5.632-2.56s-4.608 1.536-4.608 2.56v8.192h-5.632c-1.536 0-2.56 3.584-2.56 5.632 0 1.536 1.536 5.632 2.56 5.632h5.632v1.536c0 1.536 3.584 2.56 4.608 2.56s5.632-1.536 5.632-2.56v-2.048h4.096c1.536 0 2.56-4.096 2.56-5.632-1.024-2.048-1.024-5.12-2.56-5.12z" fill="#3B86C7" p-id="15566"></path><path d="M537.088 305.152c0 4.608 4.096 8.704 8.704 8.704 4.608 0 8.704-4.096 8.704-8.704s-4.096-8.704-8.704-8.704c-4.608-0.512-8.704 3.584-8.704 8.704z" fill="#FFFFFF" p-id="15567"></path><path d="M436.736 396.288c11.776-16.384 30.72-27.136 51.2-27.136 22.016 0 40.96 10.752 52.224 28.16 0 0 2.048 0.512 4.608 0 2.048-0.512 2.048-4.096 2.048-4.096-12.8-18.944-34.816-32.256-58.88-32.256s-45.056 12.288-58.368 30.72c0 0 0.512 3.584 1.536 3.584 2.048 2.56 5.632 1.024 5.632 1.024z" fill="#3B86C7" p-id="15568"></path><path d="M425.984 305.664c0 4.608 4.096 8.704 8.704 8.704s8.704-4.096 8.704-8.704-4.096-8.704-8.704-8.704c-4.608-1.024-8.704 3.072-8.704 8.704z" fill="#FFFFFF" p-id="15569"></path><path d="M546.816 319.488c-7.68 0-13.824-6.144-13.824-13.824s6.144-13.824 13.824-13.824c7.68 0 13.824 6.144 13.824 13.824-0.512 6.656-6.144 13.824-13.824 13.824z m0-22.016c-4.096 0-7.68 3.584-7.68 7.68s3.584 7.68 7.68 7.68 7.68-3.584 7.68-7.68-3.584-7.68-7.68-7.68zM435.2 319.488c-7.68 0-13.824-6.144-13.824-13.824S427.52 291.84 435.2 291.84s13.824 6.144 13.824 13.824c0 7.68-6.144 13.824-13.824 13.824z m0-21.504c-4.096 0-7.68 3.584-7.68 7.68s3.584 7.68 7.68 7.68 7.68-3.584 7.68-7.68-3.584-7.68-7.68-7.68z" fill="#3B86C7" p-id="15570"></path><path d="M521.728 496.64c0 4.608-3.584 8.192-8.192 8.192H390.144c-4.608 0-8.192-3.584-8.192-8.192v-0.512c0-4.608 3.584-8.192 8.192-8.192h123.392c4.608 0 8.192 3.584 8.192 8.704z m-145.92 0c0 4.608-3.584 8.192-8.192 8.192h-0.512c-4.608 0-8.192-3.584-8.192-8.192v-0.512c0-4.608 3.584-8.192 8.192-8.192h0.512c4.608 0 8.192 3.584 8.192 8.704z" fill="#FFFFFF" p-id="15571"></path><path d="M654.336 184.832H440.32s-2.048 1.536-2.048 4.096c0 3.584 2.048 4.096 2.048 4.096h214.016c6.144 0 10.752 3.584 13.824 8.704-3.584-2.048-7.168-3.072-11.264-3.072-10.752 0-19.968 8.192-20.48 18.944v288.768c-0.512 7.68-6.656 12.8-14.336 12.8-7.68 0-13.824-5.632-14.336-12.8v-40.96H358.912V208.896c0-8.192 6.656-14.848 14.848-14.848h17.92s0.512-1.536 0.512-4.096-0.512-4.608-0.512-4.608H373.76c-12.8 0-23.04 10.24-23.04 23.04v256.512H322.56v57.856c2.56 13.824 13.824 24.064 27.136 24.576h272.384c12.8 0 23.04-10.24 23.04-23.04V259.072h32.768v-50.176c0.512-13.312-9.728-24.064-23.552-24.064z m-16.384 339.968c0 8.192-6.656 14.848-14.848 14.848H350.72c-8.704-0.512-16.896-7.68-18.944-16.384v-49.664h270.336l-0.512 32.768c0.512 11.776 10.24 20.992 22.528 20.992 6.144 0 10.752-2.048 14.848-6.144l-1.024 3.584z m32.256-273.92h-24.576v-32.768c0.512-6.144 6.144-10.752 12.288-10.752s11.776 4.608 12.288 10.752V250.88z" fill="#3B86C7" p-id="15572"></path><path d="M423.936 184.832H399.36s-1.536 1.536-1.536 4.608c0 2.048 1.536 3.584 1.536 3.584h24.576s1.536-1.536 1.536-3.584c-0.512-2.56-1.536-4.608-1.536-4.608z" fill="#3B86C7" p-id="15573"></path><path d="M703.488 278.528l-126.464 126.976-10.752 40.96 37.376-6.656 131.072-128.512s6.656-14.336-6.656-25.088c-12.8-10.752-24.576-7.68-24.576-7.68z" fill="#FFFFFF" p-id="15574"></path><path d="M730.624 283.136c-7.68-6.656-14.336-10.752-20.48-10.752-7.68 0-11.776 5.632-11.776 5.632L573.44 403.456l-0.512 0.512-10.752 43.52s0 2.56 0.512 3.584c0.512 1.024 2.56 1.536 2.56 1.536l42.496-9.728 126.464-126.976s6.144-4.096 6.656-10.752c0.512-7.168-3.072-14.336-10.24-22.016z m-18.944 46.592l-5.632 5.632c-16.896-6.656-26.112-28.672-26.112-28.672v-0.512l18.432-18.432c2.56 5.632 10.752 20.992 27.136 29.184l-6.656 6.656c-9.728-4.096-19.968-16.896-19.968-16.896s-3.584 0-4.096 0.512c-1.536 0.512-2.048 4.608-2.048 4.608-0.512 0.512 8.704 12.288 18.944 17.92z m-135.168 86.528c3.584 6.656 10.24 16.384 19.968 22.528l-27.136 5.632 7.168-28.16z m30.72 18.944c-18.432-8.192-26.624-29.184-26.624-29.184L673.792 312.32c2.56 6.144 11.776 22.016 26.624 29.184L607.232 435.2z m123.904-124.928c-17.92-7.68-26.624-26.112-28.16-28.672 0-0.512 2.048-3.584 6.656-3.584s10.24 3.584 16.384 8.704c6.144 6.144 9.728 11.776 8.704 16.384 0 4.608-3.072 6.656-3.584 7.168z" fill="#3B86C7" p-id="15575"></path><path d="M666.624 333.824L609.28 391.168s0 3.584 0.512 3.584c0.512 0.512 3.584 0.512 3.584 0.512L670.72 337.92s-0.512-2.56-1.536-3.584c-0.512 0-2.56-0.512-2.56-0.512z m-64.512 62.464l-7.168 6.144s0 2.56 0.512 3.584c1.536 2.048 4.096 1.536 4.096 1.536l7.68-6.144s0-2.048-1.536-3.584c-1.536-1.536-3.584-1.536-3.584-1.536z" fill="#3B86C7" p-id="15576"></path></svg>